<?xml version="1.0" standalone="no"?>
<!DOCTYPE svg PUBLIC "-//W3C//DTD SVG 20010904//EN"
 "http://www.w3.org/TR/2001/REC-SVG-20010904/DTD/svg10.dtd">
<svg version="1.0" xmlns="http://www.w3.org/2000/svg"
 width="700.000000pt" height="700.000000pt" viewBox="0 0 700.000000 700.000000"
 preserveAspectRatio="xMidYMid meet">
<metadata>
Created by potrace 1.14, written by Peter Selinger 2001-2017
</metadata>
<g transform="translate(0.000000,700.000000) scale(0.100000,-0.100000)"
fill="#000000" stroke="none">
<path d="M3365 6987 c-72 -15 -201 -75 -256 -118 -21 -17 -331 -323 -688 -680
l-650 -650 864 -865 865 -865 865 865 865 865 -645 645 c-355 355 -665 661
-688 679 -51 42 -143 89 -217 111 -72 22 -238 28 -315 13z"/>
<path d="M814 4583 c-356 -357 -663 -668 -681 -692 -43 -55 -86 -139 -108
-211 -19 -64 -28 -225 -15 -290 16 -78 18 -84 36 -130 44 -114 93 -167 758
-833 l658 -657 865 865 864 865 -864 865 -865 865 -648 -647z"/>
<path d="M4672 4364 l-863 -864 865 -865 865 -865 645 645 c354 354 660 664
679 687 179 221 179 572 0 795 -30 37 -1279 1292 -1314 1319 -11 9 -180 -155
-877 -852z"/>
<path d="M2633 2325 l-863 -864 651 -650 c358 -358 678 -671 712 -695 168
-118 374 -146 582 -79 129 41 153 63 852 762 l664 663 -865 864 c-476 475
-866 864 -868 863 -2 0 -391 -389 -865 -864z"/>
</g>
</svg>
